<svg id="Layer_1" data-name="Layer 1" xmlns="http://www.w3.org/2000/svg" viewBox="0 0 1148.19 332.47"><defs><style>.cls-1{fill:#352985;}.cls-2{fill:#464377;}.cls-3{font-size:36px;font-family:Helvetica;}.cls-4{letter-spacing:-0.02em;}</style></defs><polygon class="cls-1" points="0.87 215.74 204.6 156.11 230.42 315.04 97.21 331.94 0.87 215.74"/><path d="M298.19,282.28l25.66,157.86-132.43,16.8L95.74,341.53l202.45-59.25M299,281,94,341l97,117,134-17L299,281Z" transform="translate(-94 -125.53)"/><polygon class="cls-2" points="205.56 155.83 353.5 115.13 353.5 281.09 231.4 314.84 205.56 155.83"/><path d="M447,241.31V406.24l-121.19,33.5-25.68-158L447,241.31m1-1.31L299,281l26,160,123-34V240Z" transform="translate(-94 -125.53)"/><polygon class="cls-1" points="353.5 114.94 480.07 108.32 490.9 264.57 354.39 281.13 353.5 114.94"/><path d="M573.61,234.37l10.76,155.29L448.88,406.09,448,241l125.6-6.58m.93-1.05L447,240l.89,167.22,137.54-16.68L574.54,233.32Z" transform="translate(-94 -125.53)"/><polygon class="cls-2" points="488.47 264.97 478.53 107.97 639.46 108.97 628.53 264.97 488.47 264.97"/><path d="M573.07,234l159.86,1L722.07,390H582.94l-9.87-156M572,233l10,158H723l11-157-162-1Z" transform="translate(-94 -125.53)"/><polygon class="cls-1" points="893.88 314.66 919.78 156.02 1124.13 215.54 1027.5 331.52 893.88 314.66"/><path d="M1014.19,282.19l203.06,59.15-96,115.19L988.46,439.76l25.73-157.57m-.81-1.28L987.3,440.62l134.41,17L1219,340.8l-205.62-59.89Z" transform="translate(-94 -125.53)"/><polygon class="cls-2" points="770.43 280.77 770.43 115.11 918.81 155.75 892.9 314.46 770.43 280.77"/><path d="M864.93,241.3l147.32,40.34L986.49,439.36,864.93,405.92V241.3m-1-1.31V406.68L987.3,440.62l26.08-159.71L863.93,240Z" transform="translate(-94 -125.53)"/><polygon class="cls-1" points="629.15 264.96 640 108.99 770.43 114.94 769.54 280.81 629.15 264.96"/><path d="M734.47,235l129.46,5.9-.88,164.84L723.68,390l10.79-155m-.93-1L722.61,390.93,864,406.9,864.93,240l-131.39-6Z" transform="translate(-94 -125.53)"/><text class="cls-3" transform="translate(11.86 154.98) rotate(-16.01)">People new to<tspan x="0" y="43.2" xml:space="preserve"> San Fransiso </tspan></text><text class="cls-3" transform="translate(860.07 82.86) rotate(15.2)">Understanding SF<tspan x="22.06" y="43.2" xml:space="preserve"> history &amp; culture</tspan></text><text class="cls-3" transform="translate(449.07 30.91) rotate(0.4)">Precita Eye<tspan class="cls-4" x="184.08" y="0">’</tspan><tspan x="191.44" y="0">s </tspan><tspan x="43.69" y="43.2">new site</tspan></text></svg>