<svg version="1.1" viewBox="0.0 0.0 600.0 371.0" fill="none" stroke="none" stroke-linecap="square" stroke-miterlimit="10" width="600" height="371" xmlns:xlink="http://www.w3.org/1999/xlink" xmlns="http://www.w3.org/2000/svg"><path fill="#ffffff" d="M0 0L600.0 0L600.0 371.0L0 371.0L0 0Z" fill-rule="nonzero"/><path stroke="#333333" stroke-width="1.0" stroke-linecap="butt" d="M84.5 313.5L581.5 313.5" fill-rule="nonzero"/><path stroke="#cccccc" stroke-width="1.0" stroke-linecap="butt" d="M84.5 256.5L581.5 256.5" fill-rule="nonzero"/><path stroke="#cccccc" stroke-width="1.0" stroke-linecap="butt" d="M84.5 199.5L581.5 199.5" fill-rule="nonzero"/><path stroke="#cccccc" stroke-width="1.0" stroke-linecap="butt" d="M84.5 143.5L581.5 143.5" fill-rule="nonzero"/><path stroke="#cccccc" stroke-width="1.0" stroke-linecap="butt" d="M84.5 86.5L581.5 86.5" fill-rule="nonzero"/><path stroke="#000000" stroke-width="1.0" stroke-linecap="butt" stroke-opacity="0.0" d="M84.5 294.5L581.5 294.5" fill-rule="nonzero"/><path stroke="#000000" stroke-width="1.0" stroke-linecap="butt" stroke-opacity="0.0" d="M84.5 275.5L581.5 275.5" fill-rule="nonzero"/><path stroke="#000000" stroke-width="1.0" stroke-linecap="butt" stroke-opacity="0.0" d="M84.5 237.5L581.5 237.5" fill-rule="nonzero"/><path stroke="#000000" stroke-width="1.0" stroke-linecap="butt" stroke-opacity="0.0" d="M84.5 218.5L581.5 218.5" fill-rule="nonzero"/><path stroke="#000000" stroke-width="1.0" stroke-linecap="butt" stroke-opacity="0.0" d="M84.5 180.5L581.5 180.5" fill-rule="nonzero"/><path stroke="#000000" stroke-width="1.0" stroke-linecap="butt" stroke-opacity="0.0" d="M84.5 162.5L581.5 162.5" fill-rule="nonzero"/><path stroke="#000000" stroke-width="1.0" stroke-linecap="butt" stroke-opacity="0.0" d="M84.5 124.5L581.5 124.5" fill-rule="nonzero"/><path stroke="#000000" stroke-width="1.0" stroke-linecap="butt" stroke-opacity="0.0" d="M84.5 105.5L581.5 105.5" fill-rule="nonzero"/><clipPath id="id_0"><path d="M84.55 86.28333L581.45 86.28333L581.45 313.45L84.55 313.45L84.55 86.28333Z" clip-rule="nonzero"/></clipPath><path stroke="#000000" stroke-width="0.0" stroke-linecap="butt" stroke-opacity="0.0" clip-path="url(#id_0)" d="M184.0 313.0L137.0 313.0L137.0 294.0C137.0 292.89542 137.89543 292.0 139.0 292.0L182.0 292.0C183.10457 292.0 184.0 292.89542 184.0 294.0Z" fill-rule="nonzero"/><path fill="#a64d79" clip-path="url(#id_0)" d="M184.0 313.0L137.0 313.0L137.0 294.0C137.0 292.89542 137.89543 292.0 139.0 292.0L182.0 292.0C183.10457 292.0 184.0 292.89542 184.0 294.0Z" fill-rule="nonzero"/><path stroke="#000000" stroke-width="0.0" stroke-linecap="butt" stroke-opacity="0.0" clip-path="url(#id_0)" d="M332.0 313.0L285.0 313.0L285.0 292.0C285.0 290.89542 285.89542 290.0 287.0 290.0L330.0 290.0C331.10458 290.0 332.0 290.89542 332.0 292.0Z" fill-rule="nonzero"/><path fill="#a64d79" clip-path="url(#id_0)" d="M332.0 313.0L285.0 313.0L285.0 292.0C285.0 290.89542 285.89542 290.0 287.0 290.0L330.0 290.0C331.10458 290.0 332.0 290.89542 332.0 292.0Z" fill-rule="nonzero"/><path stroke="#000000" stroke-width="0.0" stroke-linecap="butt" stroke-opacity="0.0" clip-path="url(#id_0)" d="M480.0 313.0L433.0 313.0L433.0 192.0C433.0 190.89543 433.89542 190.0 435.0 190.0L478.0 190.0C479.10458 190.0 480.0 190.89543 480.0 192.0Z" fill-rule="nonzero"/><path fill="#a64d79" clip-path="url(#id_0)" d="M480.0 313.0L433.0 313.0L433.0 192.0C433.0 190.89543 433.89542 190.0 435.0 190.0L478.0 190.0C479.10458 190.0 480.0 190.89543 480.0 192.0Z" fill-rule="nonzero"/><path stroke="#000000" stroke-width="0.0" stroke-linecap="butt" stroke-opacity="0.0" clip-path="url(#id_0)" d="M232.0 313.0L185.0 313.0L185.0 303.0C185.0 301.89542 185.89543 301.0 187.0 301.0L230.0 301.0C231.10457 301.0 232.0 301.89542 232.0 303.0Z" fill-rule="nonzero"/><path fill="#f6b26b" clip-path="url(#id_0)" d="M232.0 313.0L185.0 313.0L185.0 303.0C185.0 301.89542 185.89543 301.0 187.0 301.0L230.0 301.0C231.10457 301.0 232.0 301.89542 232.0 303.0Z" fill-rule="nonzero"/><path stroke="#000000" stroke-width="0.0" stroke-linecap="butt" stroke-opacity="0.0" clip-path="url(#id_0)" d="M380.0 313.0L333.0 313.0L333.0 155.0C333.0 153.89543 333.89542 153.0 335.0 153.0L378.0 153.0C379.10458 153.0 380.0 153.89543 380.0 155.0Z" fill-rule="nonzero"/><path fill="#f6b26b" clip-path="url(#id_0)" d="M380.0 313.0L333.0 313.0L333.0 155.0C333.0 153.89543 333.89542 153.0 335.0 153.0L378.0 153.0C379.10458 153.0 380.0 153.89543 380.0 155.0Z" fill-rule="nonzero"/><path stroke="#000000" stroke-width="0.0" stroke-linecap="butt" stroke-opacity="0.0" clip-path="url(#id_0)" d="M528.0 313.0L481.0 313.0L481.0 133.0C481.0 131.89543 481.89542 131.0 483.0 131.0L526.0 131.0C527.10455 131.0 528.0 131.89543 528.0 133.0Z" fill-rule="nonzero"/><path fill="#f6b26b" clip-path="url(#id_0)" d="M528.0 313.0L481.0 313.0L481.0 133.0C481.0 131.89543 481.89542 131.0 483.0 131.0L526.0 131.0C527.10455 131.0 528.0 131.89543 528.0 133.0Z" fill-rule="nonzero"/><path fill="#000000" d="M184.48438 349.45L184.48438 340.85626L190.28125 340.85626L190.28125 341.8719L185.625 341.8719L185.625 344.52814L189.65625 344.52814L189.65625 345.54376L185.625 345.54376L185.625 349.45L184.48438 349.45ZM191.29688 342.075L191.29688 340.85626L192.35938 340.85626L192.35938 342.075L191.29688 342.075ZM191.29688 349.45L191.29688 343.23126L192.35938 343.23126L192.35938 349.45L191.29688 349.45ZM194.29688 349.45L194.29688 343.23126L195.23438 343.23126L195.23438 344.10626Q195.92188 343.09064 197.21875 343.09064Q197.78125 343.09064 198.25 343.29376Q198.73438 343.4969 198.96875 343.825Q199.20312 344.15314 199.29688 344.59064Q199.34375 344.8875 199.34375 345.6219L199.34375 349.45L198.29688 349.45L198.29688 345.66876Q198.29688 345.0125 198.17188 344.7Q198.04688 344.3875 197.73438 344.2Q197.42188 343.9969 197.0 343.9969Q196.32812 343.9969 195.82812 344.4344Q195.34375 344.85626 195.34375 346.04376L195.34375 349.45L194.29688 349.45ZM205.32812 349.45L205.32812 348.66876Q204.73438 349.59064 203.59375 349.59064Q202.84375 349.59064 202.21875 349.1844Q201.59375 348.7625 201.25 348.02814Q200.90625 347.29376 200.90625 346.34064Q200.90625 345.41876 201.21875 344.65314Q201.53125 343.8875 202.15625 343.4969Q202.78125 343.09064 203.54688 343.09064Q204.10938 343.09064 204.54688 343.325Q204.98438 343.5594 205.26562 343.9344L205.26562 340.85626L206.3125 340.85626L206.3125 349.45L205.32812 349.45ZM202.0 346.34064Q202.0 347.54376 202.5 348.1375Q203.0 348.71564 203.6875 348.71564Q204.375 348.71564 204.85938 348.15314Q205.34375 347.59064 205.34375 346.4344Q205.34375 345.15314 204.84375 344.5594Q204.35938 343.96564 203.64062 343.96564Q202.9375 343.96564 202.46875 344.54376Q202.0 345.10626 202.0 346.34064ZM211.29688 349.45L211.29688 343.23126L212.23438 343.23126L212.23438 344.10626Q212.53125 343.6375 213.01562 343.3719Q213.5 343.09064 214.125 343.09064Q214.8125 343.09064 215.25 343.3719Q215.70312 343.65314 215.875 344.16876Q216.625 343.09064 217.79688 343.09064Q218.73438 343.09064 219.21875 343.60626Q219.71875 344.10626 219.71875 345.1844L219.71875 349.45L218.67188 349.45L218.67188 345.52814Q218.67188 344.90314 218.5625 344.6219Q218.46875 344.34064 218.20312 344.16876Q217.9375 343.9969 217.5625 343.9969Q216.90625 343.9969 216.46875 344.4344Q216.04688 344.8719 216.04688 345.84064L216.04688 349.45L214.98438 349.45L214.98438 345.40314Q214.98438 344.7 214.71875 344.35626Q214.46875 343.9969 213.89062 343.9969Q213.4375 343.9969 213.0625 344.23126Q212.6875 344.46564 212.51562 344.91876Q212.34375 345.3719 212.34375 346.21564L212.34375 349.45L211.29688 349.45ZM221.29688 342.075L221.29688 340.85626L222.35938 340.85626L222.35938 342.075L221.29688 342.075ZM221.29688 349.45L221.29688 343.23126L222.35938 343.23126L222.35938 349.45L221.29688 349.45ZM223.875 347.59064L224.90625 347.4344Q225.0 348.0594 225.39062 348.3875Q225.79688 348.71564 226.53125 348.71564Q227.25 348.71564 227.59375 348.4344Q227.95312 348.1375 227.95312 347.73126Q227.95312 347.3719 227.64062 347.16876Q227.42188 347.02814 226.5625 346.8094Q225.40625 346.5125 224.95312 346.3094Q224.51562 346.09064 224.28125 345.71564Q224.04688 345.34064 224.04688 344.8719Q224.04688 344.46564 224.23438 344.10626Q224.42188 343.7469 224.75 343.5125Q225.0 343.34064 225.42188 343.21564Q225.84375 343.09064 226.34375 343.09064Q227.0625 343.09064 227.60938 343.3094Q228.17188 343.5125 228.4375 343.8719Q228.70312 344.23126 228.79688 344.825L227.76562 344.96564Q227.70312 344.4969 227.35938 344.23126Q227.03125 343.95 226.40625 343.95Q225.6875 343.95 225.375 344.2Q225.0625 344.4344 225.0625 344.7625Q225.0625 344.96564 225.1875 345.1219Q225.32812 345.29376 225.59375 345.40314Q225.75 345.46564 226.53125 345.66876Q227.65625 345.98126 228.09375 346.16876Q228.53125 346.35626 228.78125 346.71564Q229.03125 347.075 229.03125 347.6219Q229.03125 348.15314 228.71875 348.6219Q228.42188 349.075 227.84375 349.34064Q227.26562 349.59064 226.53125 349.59064Q225.3125 349.59064 224.67188 349.09064Q224.04688 348.575 223.875 347.59064ZM229.875 347.59064L230.90625 347.4344Q231.0 348.0594 231.39062 348.3875Q231.79688 348.71564 232.53125 348.71564Q233.25 348.71564 233.59375 348.4344Q233.95312 348.1375 233.95312 347.73126Q233.95312 347.3719 233.64062 347.16876Q233.42188 347.02814 232.5625 346.8094Q231.40625 346.5125 230.95312 346.3094Q230.51562 346.09064 230.28125 345.71564Q230.04688 345.34064 230.04688 344.8719Q230.04688 344.46564 230.23438 344.10626Q230.42188 343.7469 230.75 343.5125Q231.0 343.34064 231.42188 343.21564Q231.84375 343.09064 232.34375 343.09064Q233.0625 343.09064 233.60938 343.3094Q234.17188 343.5125 234.4375 343.8719Q234.70312 344.23126 234.79688 344.825L233.76562 344.96564Q233.70312 344.4969 233.35938 344.23126Q233.03125 343.95 232.40625 343.95Q231.6875 343.95 231.375 344.2Q231.0625 344.4344 231.0625 344.7625Q231.0625 344.96564 231.1875 345.1219Q231.32812 345.29376 231.59375 345.40314Q231.75 345.46564 232.53125 345.66876Q233.65625 345.98126 234.09375 346.16876Q234.53125 346.35626 234.78125 346.71564Q235.03125 347.075 235.03125 347.6219Q235.03125 348.15314 234.71875 348.6219Q234.42188 349.075 233.84375 349.34064Q233.26562 349.59064 232.53125 349.59064Q231.3125 349.59064 230.67188 349.09064Q230.04688 348.575 229.875 347.59064ZM236.29688 342.075L236.29688 340.85626L237.35938 340.85626L237.35938 342.075L236.29688 342.075ZM236.29688 349.45L236.29688 343.23126L237.35938 343.23126L237.35938 349.45L236.29688 349.45ZM238.90625 346.34064Q238.90625 344.60626 239.85938 343.77814Q240.65625 343.09064 241.8125 343.09064Q243.09375 343.09064 243.90625 343.9344Q244.73438 344.7625 244.73438 346.2469Q244.73438 347.45 244.375 348.1375Q244.01562 348.825 243.3125 349.21564Q242.625 349.59064 241.8125 349.59064Q240.51562 349.59064 239.70312 348.7625Q238.90625 347.91876 238.90625 346.34064ZM239.98438 346.34064Q239.98438 347.52814 240.5 348.1219Q241.03125 348.71564 241.8125 348.71564Q242.60938 348.71564 243.125 348.1219Q243.64062 347.52814 243.64062 346.3094Q243.64062 345.15314 243.10938 344.5594Q242.59375 343.96564 241.8125 343.96564Q241.03125 343.96564 240.5 344.5594Q239.98438 345.1375 239.98438 346.34064ZM246.29688 349.45L246.29688 343.23126L247.23438 343.23126L247.23438 344.10626Q247.92188 343.09064 249.21875 343.09064Q249.78125 343.09064 250.25 343.29376Q250.73438 343.4969 250.96875 343.825Q251.20312 344.15314 251.29688 344.59064Q251.34375 344.8875 251.34375 345.6219L251.34375 349.45L250.29688 349.45L250.29688 345.66876Q250.29688 345.0125 250.17188 344.7Q250.04688 344.3875 249.73438 344.2Q249.42188 343.9969 249.0 343.9969Q248.32812 343.9969 247.82812 344.4344Q247.34375 344.85626 247.34375 346.04376L247.34375 349.45L246.29688 349.45ZM255.875 347.59064L256.90625 347.4344Q257.0 348.0594 257.39062 348.3875Q257.79688 348.71564 258.53125 348.71564Q259.25 348.71564 259.59375 348.4344Q259.95312 348.1375 259.95312 347.73126Q259.95312 347.3719 259.64062 347.16876Q259.42188 347.02814 258.5625 346.8094Q257.40625 346.5125 256.95312 346.3094Q256.51562 346.09064 256.28125 345.71564Q256.04688 345.34064 256.04688 344.8719Q256.04688 344.46564 256.23438 344.10626Q256.42188 343.7469 256.75 343.5125Q257.0 343.34064 257.42188 343.21564Q257.84375 343.09064 258.34375 343.09064Q259.0625 343.09064 259.60938 343.3094Q260.17188 343.5125 260.4375 343.8719Q260.70312 344.23126 260.79688 344.825L259.76562 344.96564Q259.70312 344.4969 259.35938 344.23126Q259.03125 343.95 258.40625 343.95Q257.6875 343.95 257.375 344.2Q257.0625 344.4344 257.0625 344.7625Q257.0625 344.96564 257.1875 345.1219Q257.32812 345.29376 257.59375 345.40314Q257.75 345.46564 258.53125 345.66876Q259.65625 345.98126 260.09375 346.16876Q260.53125 346.35626 260.78125 346.71564Q261.03125 347.075 261.03125 347.6219Q261.03125 348.15314 260.71875 348.6219Q260.42188 349.075 259.84375 349.34064Q259.26562 349.59064 258.53125 349.59064Q257.3125 349.59064 256.67188 349.09064Q256.04688 348.575 255.875 347.59064ZM264.59375 348.5125L264.75 349.4344Q264.29688 349.52814 263.95312 349.52814Q263.375 349.52814 263.0625 349.35626Q262.75 349.16876 262.60938 348.8719Q262.48438 348.575 262.48438 347.6219L262.48438 344.04376L261.71875 344.04376L261.71875 343.23126L262.48438 343.23126L262.48438 341.6844L263.53125 341.0594L263.53125 343.23126L264.59375 343.23126L264.59375 344.04376L263.53125 344.04376L263.53125 347.6844Q263.53125 348.1375 263.57812 348.2625Q263.64062 348.3875 263.76562 348.46564Q263.89062 348.54376 264.125 348.54376Q264.3125 348.54376 264.59375 348.5125ZM269.35938 348.6844Q268.76562 349.1844 268.21875 349.3875Q267.6875 349.59064 267.0625 349.59064Q266.03125 349.59064 265.48438 349.09064Q264.9375 348.59064 264.9375 347.8094Q264.9375 347.35626 265.14062 346.98126Q265.34375 346.59064 265.6875 346.3719Q266.03125 346.1375 266.45312 346.02814Q266.75 345.9344 267.39062 345.85626Q268.65625 345.71564 269.26562 345.4969Q269.26562 345.27814 269.26562 345.23126Q269.26562 344.575 268.96875 344.3094Q268.5625 343.96564 267.76562 343.96564Q267.03125 343.96564 266.67188 344.23126Q266.3125 344.48126 266.14062 345.1375L265.10938 344.9969Q265.25 344.34064 265.57812 343.9344Q265.90625 343.52814 266.51562 343.3094Q267.125 343.09064 267.92188 343.09064Q268.71875 343.09064 269.21875 343.27814Q269.71875 343.46564 269.95312 343.7469Q270.1875 344.02814 270.28125 344.46564Q270.32812 344.73126 270.32812 345.4344L270.32812 346.84064Q270.32812 348.3094 270.39062 348.7Q270.46875 349.09064 270.67188 349.45L269.5625 349.45Q269.40625 349.1219 269.35938 348.6844ZM269.26562 346.325Q268.6875 346.5594 267.54688 346.73126Q266.89062 346.825 266.625 346.95Q266.35938 347.0594 266.20312 347.27814Q266.0625 347.4969 266.0625 347.77814Q266.0625 348.2 266.375 348.48126Q266.70312 348.7625 267.3125 348.7625Q267.92188 348.7625 268.39062 348.4969Q268.875 348.23126 269.09375 347.7625Q269.26562 347.40314 269.26562 346.71564L269.26562 346.325ZM274.59375 348.5125L274.75 349.4344Q274.29688 349.52814 273.95312 349.52814Q273.375 349.52814 273.0625 349.35626Q272.75 349.16876 272.60938 348.8719Q272.48438 348.575 272.48438 347.6219L272.48438 344.04376L271.71875 344.04376L271.71875 343.23126L272.48438 343.23126L272.48438 341.6844L273.53125 341.0594L273.53125 343.23126L274.59375 343.23126L274.59375 344.04376L273.53125 344.04376L273.53125 347.6844Q273.53125 348.1375 273.57812 348.2625Q273.64062 348.3875 273.76562 348.46564Q273.89062 348.54376 274.125 348.54376Q274.3125 348.54376 274.59375 348.5125ZM279.54688 347.45L280.64062 347.575Q280.39062 348.52814 279.6875 349.0594Q278.98438 349.59064 277.90625 349.59064Q276.54688 349.59064 275.73438 348.7469Q274.9375 347.90314 274.9375 346.3875Q274.9375 344.825 275.75 343.96564Q276.5625 343.09064 277.84375 343.09064Q279.09375 343.09064 279.875 343.9344Q280.67188 344.77814 280.67188 346.325Q280.67188 346.41876 280.67188 346.60626L276.03125 346.60626Q276.09375 347.6375 276.60938 348.1844Q277.125 348.71564 277.90625 348.71564Q278.48438 348.71564 278.89062 348.41876Q279.3125 348.10626 279.54688 347.45ZM276.09375 345.7469L279.5625 345.7469Q279.5 344.95 279.17188 344.5594Q278.65625 343.95 277.85938 343.95Q277.125 343.95 276.625 344.4344Q276.14062 344.91876 276.09375 345.7469ZM282.29688 349.45L282.29688 343.23126L283.23438 343.23126L283.23438 344.10626Q283.53125 343.6375 284.01562 343.3719Q284.5 343.09064 285.125 343.09064Q285.8125 343.09064 286.25 343.3719Q286.70312 343.65314 286.875 344.16876Q287.625 343.09064 288.79688 343.09064Q289.73438 343.09064 290.21875 343.60626Q290.71875 344.10626 290.71875 345.1844L290.71875 349.45L289.67188 349.45L289.67188 345.52814Q289.67188 344.90314 289.5625 344.6219Q289.46875 344.34064 289.20312 344.16876Q288.9375 343.9969 288.5625 343.9969Q287.90625 343.9969 287.46875 344.4344Q287.04688 344.8719 287.04688 345.84064L287.04688 349.45L285.98438 349.45L285.98438 345.40314Q285.98438 344.7 285.71875 344.35626Q285.46875 343.9969 284.89062 343.9969Q284.4375 343.9969 284.0625 344.23126Q283.6875 344.46564 283.51562 344.91876Q283.34375 345.3719 283.34375 346.21564L283.34375 349.45L282.29688 349.45ZM296.54688 347.45L297.64062 347.575Q297.39062 348.52814 296.6875 349.0594Q295.98438 349.59064 294.90625 349.59064Q293.54688 349.59064 292.73438 348.7469Q291.9375 347.90314 291.9375 346.3875Q291.9375 344.825 292.75 343.96564Q293.5625 343.09064 294.84375 343.09064Q296.09375 343.09064 296.875 343.9344Q297.67188 344.77814 297.67188 346.325Q297.67188 346.41876 297.67188 346.60626L293.03125 346.60626Q293.09375 347.6375 293.60938 348.1844Q294.125 348.71564 294.90625 348.71564Q295.48438 348.71564 295.89062 348.41876Q296.3125 348.10626 296.54688 347.45ZM293.09375 345.7469L296.5625 345.7469Q296.5 344.95 296.17188 344.5594Q295.65625 343.95 294.85938 343.95Q294.125 343.95 293.625 344.4344Q293.14062 344.91876 293.09375 345.7469ZM299.29688 349.45L299.29688 343.23126L300.23438 343.23126L300.23438 344.10626Q300.92188 343.09064 302.21875 343.09064Q302.78125 343.09064 303.25 343.29376Q303.73438 343.4969 303.96875 343.825Q304.20312 344.15314 304.29688 344.59064Q304.34375 344.8875 304.34375 345.6219L304.34375 349.45L303.29688 349.45L303.29688 345.66876Q303.29688 345.0125 303.17188 344.7Q303.04688 344.3875 302.73438 344.2Q302.42188 343.9969 302.0 343.9969Q301.32812 343.9969 300.82812 344.4344Q300.34375 344.85626 300.34375 346.04376L300.34375 349.45L299.29688 349.45ZM308.59375 348.5125L308.75 349.4344Q308.29688 349.52814 307.95312 349.52814Q307.375 349.52814 307.0625 349.35626Q306.75 349.16876 306.60938 348.8719Q306.48438 348.575 306.48438 347.6219L306.48438 344.04376L305.71875 344.04376L305.71875 343.23126L306.48438 343.23126L306.48438 341.6844L307.53125 341.0594L307.53125 343.23126L308.59375 343.23126L308.59375 344.04376L307.53125 344.04376L307.53125 347.6844Q307.53125 348.1375 307.57812 348.2625Q307.64062 348.3875 307.76562 348.46564Q307.89062 348.54376 308.125 348.54376Q308.3125 348.54376 308.59375 348.5125ZM309.5625 349.45L309.5625 348.2469L310.76562 348.2469L310.76562 349.45Q310.76562 350.10626 310.53125 350.5125Q310.29688 350.9344 309.79688 351.15314L309.5 350.7Q309.82812 350.5594 309.98438 350.2625Q310.14062 349.98126 310.17188 349.45L309.5625 349.45ZM317.59375 348.5125L317.75 349.4344Q317.29688 349.52814 316.95312 349.52814Q316.375 349.52814 316.0625 349.35626Q315.75 349.16876 315.60938 348.8719Q315.48438 348.575 315.48438 347.6219L315.48438 344.04376L314.71875 344.04376L314.71875 343.23126L315.48438 343.23126L315.48438 341.6844L316.53125 341.0594L316.53125 343.23126L317.59375 343.23126L317.59375 344.04376L316.53125 344.04376L316.53125 347.6844Q316.53125 348.1375 316.57812 348.2625Q316.64062 348.3875 316.76562 348.46564Q316.89062 348.54376 317.125 348.54376Q317.3125 348.54376 317.59375 348.5125ZM317.90625 346.34064Q317.90625 344.60626 318.85938 343.77814Q319.65625 343.09064 320.8125 343.09064Q322.09375 343.09064 322.90625 343.9344Q323.73438 344.7625 323.73438 346.2469Q323.73438 347.45 323.375 348.1375Q323.01562 348.825 322.3125 349.21564Q321.625 349.59064 320.8125 349.59064Q319.51562 349.59064 318.70312 348.7625Q317.90625 347.91876 317.90625 346.34064ZM318.98438 346.34064Q318.98438 347.52814 319.5 348.1219Q320.03125 348.71564 320.8125 348.71564Q321.60938 348.71564 322.125 348.1219Q322.64062 347.52814 322.64062 346.3094Q322.64062 345.15314 322.10938 344.5594Q321.59375 343.96564 320.8125 343.96564Q320.03125 343.96564 319.5 344.5594Q318.98438 345.1375 318.98438 346.34064ZM329.375 349.45L329.375 348.52814Q328.64062 349.59064 327.39062 349.59064Q326.84375 349.59064 326.35938 349.3875Q325.89062 349.16876 325.65625 348.85626Q325.42188 348.52814 325.32812 348.0594Q325.26562 347.7625 325.26562 347.075L325.26562 343.23126L326.32812 343.23126L326.32812 346.6844Q326.32812 347.4969 326.39062 347.79376Q326.48438 348.2 326.79688 348.45Q327.125 348.6844 327.60938 348.6844Q328.07812 348.6844 328.48438 348.45Q328.90625 348.2 329.07812 347.77814Q329.26562 347.35626 329.26562 346.5594L329.26562 343.23126L330.3125 343.23126L330.3125 349.45L329.375 349.45ZM332.28125 349.45L332.28125 343.23126L333.23438 343.23126L333.23438 344.16876Q333.59375 343.5125 333.89062 343.3094Q334.20312 343.09064 334.57812 343.09064Q335.10938 343.09064 335.65625 343.41876L335.29688 344.40314Q334.90625 344.16876 334.53125 344.16876Q334.17188 344.16876 333.89062 344.3875Q333.625 344.59064 333.51562 344.96564Q333.32812 345.52814 333.32812 346.1844L333.32812 349.45L332.28125 349.45ZM343.32812 349.45L343.32812 348.66876Q342.73438 349.59064 341.59375 349.59064Q340.84375 349.59064 340.21875 349.1844Q339.59375 348.7625 339.25 348.02814Q338.90625 347.29376 338.90625 346.34064Q338.90625 345.41876 339.21875 344.65314Q339.53125 343.8875 340.15625 343.4969Q340.78125 343.09064 341.54688 343.09064Q342.10938 343.09064 342.54688 343.325Q342.98438 343.5594 343.26562 343.9344L343.26562 340.85626L344.3125 340.85626L344.3125 349.45L343.32812 349.45ZM340.0 346.34064Q340.0 347.54376 340.5 348.1375Q341.0 348.71564 341.6875 348.71564Q342.375 348.71564 342.85938 348.15314Q343.34375 347.59064 343.34375 346.4344Q343.34375 345.15314 342.84375 344.5594Q342.35938 343.96564 341.64062 343.96564Q340.9375 343.96564 340.46875 344.54376Q340.0 345.10626 340.0 346.34064ZM350.54688 347.45L351.64062 347.575Q351.39062 348.52814 350.6875 349.0594Q349.98438 349.59064 348.90625 349.59064Q347.54688 349.59064 346.73438 348.7469Q345.9375 347.90314 345.9375 346.3875Q345.9375 344.825 346.75 343.96564Q347.5625 343.09064 348.84375 343.09064Q350.09375 343.09064 350.875 343.9344Q351.67188 344.77814 351.67188 346.325Q351.67188 346.41876 351.67188 346.60626L347.03125 346.60626Q347.09375 347.6375 347.60938 348.1844Q348.125 348.71564 348.90625 348.71564Q349.48438 348.71564 349.89062 348.41876Q350.3125 348.10626 350.54688 347.45ZM347.09375 345.7469L350.5625 345.7469Q350.5 344.95 350.17188 344.5594Q349.65625 343.95 348.85938 343.95Q348.125 343.95 347.625 344.4344Q347.14062 344.91876 347.09375 345.7469ZM355.59375 348.5125L355.75 349.4344Q355.29688 349.52814 354.95312 349.52814Q354.375 349.52814 354.0625 349.35626Q353.75 349.16876 353.60938 348.8719Q353.48438 348.575 353.48438 347.6219L353.48438 344.04376L352.71875 344.04376L352.71875 343.23126L353.48438 343.23126L353.48438 341.6844L354.53125 341.0594L354.53125 343.23126L355.59375 343.23126L355.59375 344.04376L354.53125 344.04376L354.53125 347.6844Q354.53125 348.1375 354.57812 348.2625Q354.64062 348.3875 354.76562 348.46564Q354.89062 348.54376 355.125 348.54376Q355.3125 348.54376 355.59375 348.5125ZM360.35938 348.6844Q359.76562 349.1844 359.21875 349.3875Q358.6875 349.59064 358.0625 349.59064Q357.03125 349.59064 356.48438 349.09064Q355.9375 348.59064 355.9375 347.8094Q355.9375 347.35626 356.14062 346.98126Q356.34375 346.59064 356.6875 346.3719Q357.03125 346.1375 357.45312 346.02814Q357.75 345.9344 358.39062 345.85626Q359.65625 345.71564 360.26562 345.4969Q360.26562 345.27814 360.26562 345.23126Q360.26562 344.575 359.96875 344.3094Q359.5625 343.96564 358.76562 343.96564Q358.03125 343.96564 357.67188 344.23126Q357.3125 344.48126 357.14062 345.1375L356.10938 344.9969Q356.25 344.34064 356.57812 343.9344Q356.90625 343.52814 357.51562 343.3094Q358.125 343.09064 358.92188 343.09064Q359.71875 343.09064 360.21875 343.27814Q360.71875 343.46564 360.95312 343.7469Q361.1875 344.02814 361.28125 344.46564Q361.32812 344.73126 361.32812 345.4344L361.32812 346.84064Q361.32812 348.3094 361.39062 348.7Q361.46875 349.09064 361.67188 349.45L360.5625 349.45Q360.40625 349.1219 360.35938 348.6844ZM360.26562 346.325Q359.6875 346.5594 358.54688 346.73126Q357.89062 346.825 357.625 346.95Q357.35938 347.0594 357.20312 347.27814Q357.0625 347.4969 357.0625 347.77814Q357.0625 348.2 357.375 348.48126Q357.70312 348.7625 358.3125 348.7625Q358.92188 348.7625 359.39062 348.4969Q359.875 348.23126 360.09375 347.7625Q360.26562 347.40314 360.26562 346.71564L360.26562 346.325ZM363.29688 342.075L363.29688 340.85626L364.35938 340.85626L364.35938 342.075L363.29688 342.075ZM363.29688 349.45L363.29688 343.23126L364.35938 343.23126L364.35938 349.45L363.29688 349.45ZM366.26562 349.45L366.26562 340.85626L367.32812 340.85626L367.32812 349.45L366.26562 349.45ZM368.875 347.59064L369.90625 347.4344Q370.0 348.0594 370.39062 348.3875Q370.79688 348.71564 371.53125 348.71564Q372.25 348.71564 372.59375 348.4344Q372.95312 348.1375 372.95312 347.73126Q372.95312 347.3719 372.64062 347.16876Q372.42188 347.02814 371.5625 346.8094Q370.40625 346.5125 369.95312 346.3094Q369.51562 346.09064 369.28125 345.71564Q369.04688 345.34064 369.04688 344.8719Q369.04688 344.46564 369.23438 344.10626Q369.42188 343.7469 369.75 343.5125Q370.0 343.34064 370.42188 343.21564Q370.84375 343.09064 371.34375 343.09064Q372.0625 343.09064 372.60938 343.3094Q373.17188 343.5125 373.4375 343.8719Q373.70312 344.23126 373.79688 344.825L372.76562 344.96564Q372.70312 344.4969 372.35938 344.23126Q372.03125 343.95 371.40625 343.95Q370.6875 343.95 370.375 344.2Q370.0625 344.4344 370.0625 344.7625Q370.0625 344.96564 370.1875 345.1219Q370.32812 345.29376 370.59375 345.40314Q370.75 345.46564 371.53125 345.66876Q372.65625 345.98126 373.09375 346.16876Q373.53125 346.35626 373.78125 346.71564Q374.03125 347.075 374.03125 347.6219Q374.03125 348.15314 373.71875 348.6219Q373.42188 349.075 372.84375 349.34064Q372.26562 349.59064 371.53125 349.59064Q370.3125 349.59064 369.67188 349.09064Q369.04688 348.575 368.875 347.59064ZM375.5625 349.45L375.5625 348.2469L376.76562 348.2469L376.76562 349.45Q376.76562 350.10626 376.53125 350.5125Q376.29688 350.9344 375.79688 351.15314L375.5 350.7Q375.82812 350.5594 375.98438 350.2625Q376.14062 349.98126 376.17188 349.45L375.5625 349.45ZM385.35938 348.6844Q384.76562 349.1844 384.21875 349.3875Q383.6875 349.59064 383.0625 349.59064Q382.03125 349.59064 381.48438 349.09064Q380.9375 348.59064 380.9375 347.8094Q380.9375 347.35626 381.14062 346.98126Q381.34375 346.59064 381.6875 346.3719Q382.03125 346.1375 382.45312 346.02814Q382.75 345.9344 383.39062 345.85626Q384.65625 345.71564 385.26562 345.4969Q385.26562 345.27814 385.26562 345.23126Q385.26562 344.575 384.96875 344.3094Q384.5625 343.96564 383.76562 343.96564Q383.03125 343.96564 382.67188 344.23126Q382.3125 344.48126 382.14062 345.1375L381.10938 344.9969Q381.25 344.34064 381.57812 343.9344Q381.90625 343.52814 382.51562 343.3094Q383.125 343.09064 383.92188 343.09064Q384.71875 343.09064 385.21875 343.27814Q385.71875 343.46564 385.95312 343.7469Q386.1875 344.02814 386.28125 344.46564Q386.32812 344.73126 386.32812 345.4344L386.32812 346.84064Q386.32812 348.3094 386.39062 348.7Q386.46875 349.09064 386.67188 349.45L385.5625 349.45Q385.40625 349.1219 385.35938 348.6844ZM385.26562 346.325Q384.6875 346.5594 383.54688 346.73126Q382.89062 346.825 382.625 346.95Q382.35938 347.0594 382.20312 347.27814Q382.0625 347.4969 382.0625 347.77814Q382.0625 348.2 382.375 348.48126Q382.70312 348.7625 383.3125 348.7625Q383.92188 348.7625 384.39062 348.4969Q384.875 348.23126 385.09375 347.7625Q385.26562 347.40314 385.26562 346.71564L385.26562 346.325ZM388.29688 349.45L388.29688 343.23126L389.23438 343.23126L389.23438 344.10626Q389.92188 343.09064 391.21875 343.09064Q391.78125 343.09064 392.25 343.29376Q392.73438 343.4969 392.96875 343.825Q393.20312 344.15314 393.29688 344.59064Q393.34375 344.8875 393.34375 345.6219L393.34375 349.45L392.29688 349.45L392.29688 345.66876Q392.29688 345.0125 392.17188 344.7Q392.04688 344.3875 391.73438 344.2Q391.42188 343.9969 391.0 343.9969Q390.32812 343.9969 389.82812 344.4344Q389.34375 344.85626 389.34375 346.04376L389.34375 349.45L388.29688 349.45ZM399.32812 349.45L399.32812 348.66876Q398.73438 349.59064 397.59375 349.59064Q396.84375 349.59064 396.21875 349.1844Q395.59375 348.7625 395.25 348.02814Q394.90625 347.29376 394.90625 346.34064Q394.90625 345.41876 395.21875 344.65314Q395.53125 343.8875 396.15625 343.4969Q396.78125 343.09064 397.54688 343.09064Q398.10938 343.09064 398.54688 343.325Q398.98438 343.5594 399.26562 343.9344L399.26562 340.85626L400.3125 340.85626L400.3125 349.45L399.32812 349.45ZM396.0 346.34064Q396.0 347.54376 396.5 348.1375Q397.0 348.71564 397.6875 348.71564Q398.375 348.71564 398.85938 348.15314Q399.34375 347.59064 399.34375 346.4344Q399.34375 345.15314 398.84375 344.5594Q398.35938 343.96564 397.64062 343.96564Q396.9375 343.96564 396.46875 344.54376Q396.0 345.10626 396.0 346.34064ZM405.29688 349.45L405.29688 343.23126L406.23438 343.23126L406.23438 344.10626Q406.53125 343.6375 407.01562 343.3719Q407.5 343.09064 408.125 343.09064Q408.8125 343.09064 409.25 343.3719Q409.70312 343.65314 409.875 344.16876Q410.625 343.09064 411.79688 343.09064Q412.73438 343.09064 413.21875 343.60626Q413.71875 344.10626 413.71875 345.1844L413.71875 349.45L412.67188 349.45L412.67188 345.52814Q412.67188 344.90314 412.5625 344.6219Q412.46875 344.34064 412.20312 344.16876Q411.9375 343.9969 411.5625 343.9969Q410.90625 343.9969 410.46875 344.4344Q410.04688 344.8719 410.04688 345.84064L410.04688 349.45L408.98438 349.45L408.98438 345.40314Q408.98438 344.7 408.71875 344.35626Q408.46875 343.9969 407.89062 343.9969Q407.4375 343.9969 407.0625 344.23126Q406.6875 344.46564 406.51562 344.91876Q406.34375 345.3719 406.34375 346.21564L406.34375 349.45L405.29688 349.45ZM419.375 349.45L419.375 348.52814Q418.64062 349.59064 417.39062 349.59064Q416.84375 349.59064 416.35938 349.3875Q415.89062 349.16876 415.65625 348.85626Q415.42188 348.52814 415.32812 348.0594Q415.26562 347.7625 415.26562 347.075L415.26562 343.23126L416.32812 343.23126L416.32812 346.6844Q416.32812 347.4969 416.39062 347.79376Q416.48438 348.2 416.79688 348.45Q417.125 348.6844 417.60938 348.6844Q418.07812 348.6844 418.48438 348.45Q418.90625 348.2 419.07812 347.77814Q419.26562 347.35626 419.26562 346.5594L419.26562 343.23126L420.3125 343.23126L420.3125 349.45L419.375 349.45ZM422.28125 349.45L422.28125 343.23126L423.23438 343.23126L423.23438 344.16876Q423.59375 343.5125 423.89062 343.3094Q424.20312 343.09064 424.57812 343.09064Q425.10938 343.09064 425.65625 343.41876L425.29688 344.40314Q424.90625 344.16876 424.53125 344.16876Q424.17188 344.16876 423.89062 344.3875Q423.625 344.59064 423.51562 344.96564Q423.32812 345.52814 423.32812 346.1844L423.32812 349.45L422.28125 349.45ZM430.35938 348.6844Q429.76562 349.1844 429.21875 349.3875Q428.6875 349.59064 428.0625 349.59064Q427.03125 349.59064 426.48438 349.09064Q425.9375 348.59064 425.9375 347.8094Q425.9375 347.35626 426.14062 346.98126Q426.34375 346.59064 426.6875 346.3719Q427.03125 346.1375 427.45312 346.02814Q427.75 345.9344 428.39062 345.85626Q429.65625 345.71564 430.26562 345.4969Q430.26562 345.27814 430.26562 345.23126Q430.26562 344.575 429.96875 344.3094Q429.5625 343.96564 428.76562 343.96564Q428.03125 343.96564 427.67188 344.23126Q427.3125 344.48126 427.14062 345.1375L426.10938 344.9969Q426.25 344.34064 426.57812 343.9344Q426.90625 343.52814 427.51562 343.3094Q428.125 343.09064 428.92188 343.09064Q429.71875 343.09064 430.21875 343.27814Q430.71875 343.46564 430.95312 343.7469Q431.1875 344.02814 431.28125 344.46564Q431.32812 344.73126 431.32812 345.4344L431.32812 346.84064Q431.32812 348.3094 431.39062 348.7Q431.46875 349.09064 431.67188 349.45L430.5625 349.45Q430.40625 349.1219 430.35938 348.6844ZM430.26562 346.325Q429.6875 346.5594 428.54688 346.73126Q427.89062 346.825 427.625 346.95Q427.35938 347.0594 427.20312 347.27814Q427.0625 347.4969 427.0625 347.77814Q427.0625 348.2 427.375 348.48126Q427.70312 348.7625 428.3125 348.7625Q428.92188 348.7625 429.39062 348.4969Q429.875 348.23126 430.09375 347.7625Q430.26562 347.40314 430.26562 346.71564L430.26562 346.325ZM433.26562 349.45L433.26562 340.85626L434.32812 340.85626L434.32812 349.45L433.26562 349.45ZM443.35938 348.6844Q442.76562 349.1844 442.21875 349.3875Q441.6875 349.59064 441.0625 349.59064Q440.03125 349.59064 439.48438 349.09064Q438.9375 348.59064 438.9375 347.8094Q438.9375 347.35626 439.14062 346.98126Q439.34375 346.59064 439.6875 346.3719Q440.03125 346.1375 440.45312 346.02814Q440.75 345.9344 441.39062 345.85626Q442.65625 345.71564 443.26562 345.4969Q443.26562 345.27814 443.26562 345.23126Q443.26562 344.575 442.96875 344.3094Q442.5625 343.96564 441.76562 343.96564Q441.03125 343.96564 440.67188 344.23126Q440.3125 344.48126 440.14062 345.1375L439.10938 344.9969Q439.25 344.34064 439.57812 343.9344Q439.90625 343.52814 440.51562 343.3094Q441.125 343.09064 441.92188 343.09064Q442.71875 343.09064 443.21875 343.27814Q443.71875 343.46564 443.95312 343.7469Q444.1875 344.02814 444.28125 344.46564Q444.32812 344.73126 444.32812 345.4344L444.32812 346.84064Q444.32812 348.3094 444.39062 348.7Q444.46875 349.09064 444.67188 349.45L443.5625 349.45Q443.40625 349.1219 443.35938 348.6844ZM443.26562 346.325Q442.6875 346.5594 441.54688 346.73126Q440.89062 346.825 440.625 346.95Q440.35938 347.0594 440.20312 347.27814Q440.0625 347.4969 440.0625 347.77814Q440.0625 348.2 440.375 348.48126Q440.70312 348.7625 441.3125 348.7625Q441.92188 348.7625 442.39062 348.4969Q442.875 348.23126 443.09375 347.7625Q443.26562 347.40314 443.26562 346.71564L443.26562 346.325ZM450.32812 349.45L450.32812 348.66876Q449.73438 349.59064 448.59375 349.59064Q447.84375 349.59064 447.21875 349.1844Q446.59375 348.7625 446.25 348.02814Q445.90625 347.29376 445.90625 346.34064Q445.90625 345.41876 446.21875 344.65314Q446.53125 343.8875 447.15625 343.4969Q447.78125 343.09064 448.54688 343.09064Q449.10938 343.09064 449.54688 343.325Q449.98438 343.5594 450.26562 343.9344L450.26562 340.85626L451.3125 340.85626L451.3125 349.45L450.32812 349.45ZM447.0 346.34064Q447.0 347.54376 447.5 348.1375Q448.0 348.71564 448.6875 348.71564Q449.375 348.71564 449.85938 348.15314Q450.34375 347.59064 450.34375 346.4344Q450.34375 345.15314 449.84375 344.5594Q449.35938 343.96564 448.64062 343.96564Q447.9375 343.96564 447.46875 344.54376Q447.0 345.10626 447.0 346.34064ZM457.32812 349.45L457.32812 348.66876Q456.73438 349.59064 455.59375 349.59064Q454.84375 349.59064 454.21875 349.1844Q453.59375 348.7625 453.25 348.02814Q452.90625 347.29376 452.90625 346.34064Q452.90625 345.41876 453.21875 344.65314Q453.53125 343.8875 454.15625 343.4969Q454.78125 343.09064 455.54688 343.09064Q456.10938 343.09064 456.54688 343.325Q456.98438 343.5594 457.26562 343.9344L457.26562 340.85626L458.3125 340.85626L458.3125 349.45L457.32812 349.45ZM454.0 346.34064Q454.0 347.54376 454.5 348.1375Q455.0 348.71564 455.6875 348.71564Q456.375 348.71564 456.85938 348.15314Q457.34375 347.59064 457.34375 346.4344Q457.34375 345.15314 456.84375 344.5594Q456.35938 343.96564 455.64062 343.96564Q454.9375 343.96564 454.46875 344.54376Q454.0 345.10626 454.0 346.34064ZM460.28125 349.45L460.28125 343.23126L461.23438 343.23126L461.23438 344.16876Q461.59375 343.5125 461.89062 343.3094Q462.20312 343.09064 462.57812 343.09064Q463.10938 343.09064 463.65625 343.41876L463.29688 344.40314Q462.90625 344.16876 462.53125 344.16876Q462.17188 344.16876 461.89062 344.3875Q461.625 344.59064 461.51562 344.96564Q461.32812 345.52814 461.32812 346.1844L461.32812 349.45L460.28125 349.45ZM468.54688 347.45L469.64062 347.575Q469.39062 348.52814 468.6875 349.0594Q467.98438 349.59064 466.90625 349.59064Q465.54688 349.59064 464.73438 348.7469Q463.9375 347.90314 463.9375 346.3875Q463.9375 344.825 464.75 343.96564Q465.5625 343.09064 466.84375 343.09064Q468.09375 343.09064 468.875 343.9344Q469.67188 344.77814 469.67188 346.325Q469.67188 346.41876 469.67188 346.60626L465.03125 346.60626Q465.09375 347.6375 465.60938 348.1844Q466.125 348.71564 466.90625 348.71564Q467.48438 348.71564 467.89062 348.41876Q468.3125 348.10626 468.54688 347.45ZM465.09375 345.7469L468.5625 345.7469Q468.5 344.95 468.17188 344.5594Q467.65625 343.95 466.85938 343.95Q466.125 343.95 465.625 344.4344Q465.14062 344.91876 465.09375 345.7469ZM470.875 347.59064L471.90625 347.4344Q472.0 348.0594 472.39062 348.3875Q472.79688 348.71564 473.53125 348.71564Q474.25 348.71564 474.59375 348.4344Q474.95312 348.1375 474.95312 347.73126Q474.95312 347.3719 474.64062 347.16876Q474.42188 347.02814 473.5625 346.8094Q472.40625 346.5125 471.95312 346.3094Q471.51562 346.09064 471.28125 345.71564Q471.04688 345.34064 471.04688 344.8719Q471.04688 344.46564 471.23438 344.10626Q471.42188 343.7469 471.75 343.5125Q472.0 343.34064 472.42188 343.21564Q472.84375 343.09064 473.34375 343.09064Q474.0625 343.09064 474.60938 343.3094Q475.17188 343.5125 475.4375 343.8719Q475.70312 344.23126 475.79688 344.825L474.76562 344.96564Q474.70312 344.4969 474.35938 344.23126Q474.03125 343.95 473.40625 343.95Q472.6875 343.95 472.375 344.2Q472.0625 344.4344 472.0625 344.7625Q472.0625 344.96564 472.1875 345.1219Q472.32812 345.29376 472.59375 345.40314Q472.75 345.46564 473.53125 345.66876Q474.65625 345.98126 475.09375 346.16876Q475.53125 346.35626 475.78125 346.71564Q476.03125 347.075 476.03125 347.6219Q476.03125 348.15314 475.71875 348.6219Q475.42188 349.075 474.84375 349.34064Q474.26562 349.59064 473.53125 349.59064Q472.3125 349.59064 471.67188 349.09064Q471.04688 348.575 470.875 347.59064ZM476.875 347.59064L477.90625 347.4344Q478.0 348.0594 478.39062 348.3875Q478.79688 348.71564 479.53125 348.71564Q480.25 348.71564 480.59375 348.4344Q480.95312 348.1375 480.95312 347.73126Q480.95312 347.3719 480.64062 347.16876Q480.42188 347.02814 479.5625 346.8094Q478.40625 346.5125 477.95312 346.3094Q477.51562 346.09064 477.28125 345.71564Q477.04688 345.34064 477.04688 344.8719Q477.04688 344.46564 477.23438 344.10626Q477.42188 343.7469 477.75 343.5125Q478.0 343.34064 478.42188 343.21564Q478.84375 343.09064 479.34375 343.09064Q480.0625 343.09064 480.60938 343.3094Q481.17188 343.5125 481.4375 343.8719Q481.70312 344.23126 481.79688 344.825L480.76562 344.96564Q480.70312 344.4969 480.35938 344.23126Q480.03125 343.95 479.40625 343.95Q478.6875 343.95 478.375 344.2Q478.0625 344.4344 478.0625 344.7625Q478.0625 344.96564 478.1875 345.1219Q478.32812 345.29376 478.59375 345.40314Q478.75 345.46564 479.53125 345.66876Q480.65625 345.98126 481.09375 346.16876Q481.53125 346.35626 481.78125 346.71564Q482.03125 347.075 482.03125 347.6219Q482.03125 348.15314 481.71875 348.6219Q481.42188 349.075 480.84375 349.34064Q480.26562 349.59064 479.53125 349.59064Q478.3125 349.59064 477.67188 349.09064Q477.04688 348.575 476.875 347.59064Z" fill-rule="nonzero"/><path fill="#000000" d="M29.550013 248.2573L21.971888 248.2573L21.971888 251.08542L20.956263 251.08542L20.956263 244.27292L21.971888 244.27292L21.971888 247.11667L29.550013 247.11667L29.550013 248.2573ZM22.175013 243.5698L20.956263 243.5698L20.956263 242.5073L22.175013 242.5073L22.175013 243.5698ZM29.550013 243.5698L23.331263 243.5698L23.331263 242.5073L29.550013 242.5073L29.550013 243.5698ZM29.550013 240.5698L23.331263 240.5698L23.331263 239.6323L24.206263 239.6323Q23.737513 239.33542 23.471888 238.85104Q23.190638 238.36667 23.190638 237.74167Q23.190638 237.05417 23.471888 236.61667Q23.753138 236.16354 24.268763 235.99167Q23.190638 235.24167 23.190638 234.0698Q23.190638 233.1323 23.706263 232.64792Q24.206263 232.14792 25.284388 232.14792L29.550013 232.14792L29.550013 233.1948L25.628138 233.1948Q25.003138 233.1948 24.721888 233.30417Q24.440638 233.39792 24.268763 233.66354Q24.096888 233.92917 24.096888 234.30417Q24.096888 234.96042 24.534388 235.39792Q24.971888 235.8198 25.940638 235.8198L29.550013 235.8198L29.550013 236.8823L25.503138 236.8823Q24.800013 236.8823 24.456263 237.14792Q24.096888 237.39792 24.096888 237.97604Q24.096888 238.42917 24.331263 238.80417Q24.565638 239.17917 25.018763 239.35104Q25.471888 239.52292 26.315638 239.52292L29.550013 239.52292L29.550013 240.5698ZM27.550013 226.3198L27.675013 225.22604Q28.628138 225.47604 29.159388 226.17917Q29.690638 226.8823 29.690638 227.96042Q29.690638 229.3198 28.846888 230.1323Q28.003138 230.92917 26.487513 230.92917Q24.925013 230.92917 24.065638 230.11667Q23.190638 229.30417 23.190638 228.02292Q23.190638 226.77292 24.034388 225.99167Q24.878138 225.1948 26.425013 225.1948Q26.518763 225.1948 26.706263 225.1948L26.706263 229.83542Q27.737513 229.77292 28.284388 229.2573Q28.815638 228.74167 28.815638 227.96042Q28.815638 227.3823 28.518763 226.97604Q28.206263 226.55417 27.550013 226.3198ZM25.846888 229.77292L25.846888 226.30417Q25.050013 226.36667 24.659388 226.6948Q24.050013 227.21042 24.050013 228.0073Q24.050013 228.74167 24.534388 229.24167Q25.018763 229.72604 25.846888 229.77292ZM28.612513 218.27292L29.534388 218.11667Q29.628138 218.5698 29.628138 218.91354Q29.628138 219.49167 29.456263 219.80417Q29.268763 220.11667 28.971888 220.2573Q28.675013 220.3823 27.721888 220.3823L24.143763 220.3823L24.143763 221.14792L23.331263 221.14792L23.331263 220.3823L21.784388 220.3823L21.159388 219.33542L23.331263 219.33542L23.331263 218.27292L24.143763 218.27292L24.143763 219.33542L27.784388 219.33542Q28.237513 219.33542 28.362513 219.28854Q28.487513 219.22604 28.565638 219.10104Q28.643763 218.97604 28.643763 218.74167Q28.643763 218.55417 28.612513 218.27292ZM26.440638 217.96042Q24.706263 217.96042 23.878138 217.0073Q23.190638 216.21042 23.190638 215.05417Q23.190638 213.77292 24.034388 212.96042Q24.862513 212.1323 26.346888 212.1323Q27.550013 212.1323 28.237513 212.49167Q28.925013 212.85104 29.315638 213.55417Q29.690638 214.24167 29.690638 215.05417Q29.690638 216.35104 28.862513 217.16354Q28.018763 217.96042 26.440638 217.96042ZM26.440638 216.8823Q27.628138 216.8823 28.221888 216.36667Q28.815638 215.83542 28.815638 215.05417Q28.815638 214.2573 28.221888 213.74167Q27.628138 213.22604 26.409388 213.22604Q25.253138 213.22604 24.659388 213.7573Q24.065638 214.27292 24.065638 215.05417Q24.065638 215.83542 24.659388 216.36667Q25.237513 216.8823 26.440638 216.8823ZM27.268763 203.5073L27.409388 202.47604Q28.471888 202.64792 29.081263 203.35104Q29.690638 204.05417 29.690638 205.0698Q29.690638 206.35104 28.862513 207.1323Q28.018763 207.89792 26.456263 207.89792Q25.456263 207.89792 24.706263 207.5698Q23.940638 207.22604 23.565638 206.55417Q23.190638 205.86667 23.190638 205.05417Q23.190638 204.05417 23.706263 203.41354Q24.206263 202.7573 25.159388 202.5698L25.315638 203.60104Q24.690638 203.74167 24.378138 204.11667Q24.050013 204.49167 24.050013 205.02292Q24.050013 205.8198 24.628138 206.3198Q25.190638 206.8198 26.425013 206.8198Q27.690638 206.8198 28.253138 206.33542Q28.815638 205.85104 28.815638 205.08542Q28.815638 204.46042 28.440638 204.05417Q28.065638 203.6323 27.268763 203.5073ZM26.440638 201.96042Q24.706263 201.96042 23.878138 201.0073Q23.190638 200.21042 23.190638 199.05417Q23.190638 197.77292 24.034388 196.96042Q24.862513 196.1323 26.346888 196.1323Q27.550013 196.1323 28.237513 196.49167Q28.925013 196.85104 29.315638 197.55417Q29.690638 198.24167 29.690638 199.05417Q29.690638 200.35104 28.862513 201.16354Q28.018763 201.96042 26.440638 201.96042ZM26.440638 200.8823Q27.628138 200.8823 28.221888 200.36667Q28.815638 199.83542 28.815638 199.05417Q28.815638 198.2573 28.221888 197.74167Q27.628138 197.22604 26.409388 197.22604Q25.253138 197.22604 24.659388 197.7573Q24.065638 198.27292 24.065638 199.05417Q24.065638 199.83542 24.659388 200.36667Q25.237513 200.8823 26.440638 200.8823ZM29.550013 194.5698L23.331263 194.5698L23.331263 193.6323L24.206263 193.6323Q23.737513 193.33542 23.471888 192.85104Q23.190638 192.36667 23.190638 191.74167Q23.190638 191.05417 23.471888 190.61667Q23.753138 190.16354 24.268763 189.99167Q23.190638 189.24167 23.190638 188.0698Q23.190638 187.1323 23.706263 186.64792Q24.206263 186.14792 25.284388 186.14792L29.550013 186.14792L29.550013 187.1948L25.628138 187.1948Q25.003138 187.1948 24.721888 187.30417Q24.440638 187.39792 24.268763 187.66354Q24.096888 187.92917 24.096888 188.30417Q24.096888 188.96042 24.534388 189.39792Q24.971888 189.8198 25.940638 189.8198L29.550013 189.8198L29.550013 190.8823L25.503138 190.8823Q24.800013 190.8823 24.456263 191.14792Q24.096888 191.39792 24.096888 191.97604Q24.096888 192.42917 24.331263 192.80417Q24.565638 193.17917 25.018763 193.35104Q25.471888 193.52292 26.315638 193.52292L29.550013 193.52292L29.550013 194.5698ZM31.940638 184.5698L23.331263 184.5698L23.331263 183.61667L24.128138 183.61667Q23.659388 183.27292 23.425013 182.85104Q23.190638 182.41354 23.190638 181.80417Q23.190638 181.0073 23.596888 180.39792Q24.003138 179.78854 24.753138 179.49167Q25.503138 179.17917 26.393763 179.17917Q27.346888 179.17917 28.112513 179.52292Q28.878138 179.85104 29.284388 180.5073Q29.690638 181.16354 29.690638 181.8823Q29.690638 182.41354 29.471888 182.83542Q29.237513 183.2573 28.909388 183.52292L31.940638 183.52292L31.940638 184.5698ZM26.471888 183.61667Q27.675013 183.61667 28.253138 183.1323Q28.815638 182.64792 28.815638 181.96042Q28.815638 181.2573 28.221888 180.7573Q27.628138 180.2573 26.378138 180.2573Q25.190638 180.2573 24.612513 180.74167Q24.018763 181.22604 24.018763 181.91354Q24.018763 182.58542 24.643763 183.10104Q25.268763 183.61667 26.471888 183.61667ZM29.550013 177.60104L20.956263 177.60104L20.956263 176.53854L29.550013 176.53854L29.550013 177.60104ZM27.550013 170.3198L27.675013 169.22604Q28.628138 169.47604 29.159388 170.17917Q29.690638 170.8823 29.690638 171.96042Q29.690638 173.3198 28.846888 174.1323Q28.003138 174.92917 26.487513 174.92917Q24.925013 174.92917 24.065638 174.11667Q23.190638 173.30417 23.190638 172.02292Q23.190638 170.77292 24.034388 169.99167Q24.878138 169.1948 26.425013 169.1948Q26.518763 169.1948 26.706263 169.1948L26.706263 173.83542Q27.737513 173.77292 28.284388 173.2573Q28.815638 172.74167 28.815638 171.96042Q28.815638 171.3823 28.518763 170.97604Q28.206263 170.55417 27.550013 170.3198ZM25.846888 173.77292L25.846888 170.30417Q25.050013 170.36667 24.659388 170.6948Q24.050013 171.21042 24.050013 172.0073Q24.050013 172.74167 24.534388 173.24167Q25.018763 173.72604 25.846888 173.77292ZM28.612513 165.27292L29.534388 165.11667Q29.628138 165.5698 29.628138 165.91354Q29.628138 166.49167 29.456263 166.80417Q29.268763 167.11667 28.971888 167.2573Q28.675013 167.3823 27.721888 167.3823L24.143763 167.3823L24.143763 168.14792L23.331263 168.14792L23.331263 167.3823L21.784388 167.3823L21.159388 166.33542L23.331263 166.33542L23.331263 165.27292L24.143763 165.27292L24.143763 166.33542L27.784388 166.33542Q28.237513 166.33542 28.362513 166.28854Q28.487513 166.22604 28.565638 166.10104Q28.643763 165.97604 28.643763 165.74167Q28.643763 165.55417 28.612513 165.27292ZM22.175013 164.5698L20.956263 164.5698L20.956263 163.5073L22.175013 163.5073L22.175013 164.5698ZM29.550013 164.5698L23.331263 164.5698L23.331263 163.5073L29.550013 163.5073L29.550013 164.5698ZM26.440638 161.96042Q24.706263 161.96042 23.878138 161.0073Q23.190638 160.21042 23.190638 159.05417Q23.190638 157.77292 24.034388 156.96042Q24.862513 156.1323 26.346888 156.1323Q27.550013 156.1323 28.237513 156.49167Q28.925013 156.85104 29.315638 157.55417Q29.690638 158.24167 29.690638 159.05417Q29.690638 160.35104 28.862513 161.16354Q28.018763 161.96042 26.440638 161.96042ZM26.440638 160.8823Q27.628138 160.8823 28.221888 160.36667Q28.815638 159.83542 28.815638 159.05417Q28.815638 158.2573 28.221888 157.74167Q27.628138 157.22604 26.409388 157.22604Q25.253138 157.22604 24.659388 157.7573Q24.065638 158.27292 24.065638 159.05417Q24.065638 159.83542 24.659388 160.36667Q25.237513 160.8823 26.440638 160.8823ZM29.550013 154.5698L23.331263 154.5698L23.331263 153.6323L24.206263 153.6323Q23.190638 152.9448 23.190638 151.64792Q23.190638 151.08542 23.393763 150.61667Q23.596888 150.1323 23.925013 149.89792Q24.253138 149.66354 24.690638 149.5698Q24.987513 149.52292 25.721888 149.52292L29.550013 149.52292L29.550013 150.5698L25.768763 150.5698Q25.112513 150.5698 24.800013 150.6948Q24.487513 150.8198 24.300013 151.1323Q24.096888 151.4448 24.096888 151.86667Q24.096888 152.53854 24.534388 153.03854Q24.956263 153.52292 26.143763 153.52292L29.550013 153.52292L29.550013 154.5698Z" fill-rule="nonzero"/><path fill="#000000" d="M72.05 313.21564Q72.05 311.6844 72.3625 310.7625Q72.675 309.825 73.28438 309.325Q73.90938 308.825 74.84688 308.825Q75.53438 308.825 76.05 309.10626Q76.58125 309.3875 76.925 309.91876Q77.26875 310.4344 77.45625 311.1844Q77.64375 311.9344 77.64375 313.21564Q77.64375 314.73126 77.33125 315.65314Q77.03438 316.575 76.40938 317.09064Q75.8 317.59064 74.84688 317.59064Q73.6125 317.59064 72.89375 316.7Q72.05 315.6375 72.05 313.21564ZM73.12813 313.21564Q73.12813 315.325 73.62813 316.02814Q74.12813 316.73126 74.84688 316.73126Q75.58125 316.73126 76.06563 316.02814Q76.56563 315.325 76.56563 313.21564Q76.56563 311.09064 76.06563 310.40314Q75.58125 309.7 74.83125 309.7Q74.1125 309.7 73.675 310.3094Q73.12813 311.09064 73.12813 313.21564Z" fill-rule="nonzero"/><path fill="#000000" d="M63.596874 259.6427L63.596874 260.65833L57.909374 260.65833Q57.909374 260.28333 58.034374 259.92395Q58.253124 259.34583 58.721874 258.78333Q59.20625 258.22083 60.1125 257.48645Q61.51875 256.3302 62.003124 255.65833Q62.503124 254.98645 62.503124 254.3927Q62.503124 253.7677 62.05 253.34583Q61.596874 252.90833 60.878124 252.90833Q60.1125 252.90833 59.659374 253.36145Q59.20625 253.81458 59.190624 254.62708L58.1125 254.5177Q58.221874 253.29895 58.940624 252.67395Q59.675 252.03333 60.909374 252.03333Q62.14375 252.03333 62.8625 252.72083Q63.58125 253.40833 63.58125 254.42395Q63.58125 254.93958 63.3625 255.43958Q63.159374 255.92395 62.659374 256.48645Q62.175 257.03333 61.05 257.98645Q60.096874 258.78333 59.815624 259.0802Q59.55 259.36145 59.378124 259.6427L63.596874 259.6427ZM65.05 258.40833L66.15938 258.31458Q66.28438 259.12708 66.72188 259.53333Q67.175 259.93958 67.81563 259.93958Q68.56563 259.93958 69.09688 259.36145Q69.62813 258.78333 69.62813 257.84583Q69.62813 256.93958 69.1125 256.42395Q68.6125 255.8927 67.78438 255.8927Q67.28438 255.8927 66.8625 256.12708Q66.45625 256.36145 66.22188 256.72083L65.2375 256.59583L66.06563 252.18958L70.34688 252.18958L70.34688 253.18958L66.90938 253.18958L66.45625 255.50208Q67.22188 254.9552 68.06563 254.9552Q69.19063 254.9552 69.95625 255.73645Q70.7375 256.5177 70.7375 257.75208Q70.7375 258.90833 70.06563 259.7677Q69.2375 260.79895 67.81563 260.79895Q66.64375 260.79895 65.89375 260.1427Q65.15938 259.48645 65.05 258.40833ZM72.05 256.42395Q72.05 254.8927 72.3625 253.97083Q72.675 253.03333 73.28438 252.53333Q73.90938 252.03333 74.84688 252.03333Q75.53438 252.03333 76.05 252.31458Q76.58125 252.59583 76.925 253.12708Q77.26875 253.6427 77.45625 254.3927Q77.64375 255.1427 77.64375 256.42395Q77.64375 257.93958 77.33125 258.86145Q77.03438 259.78333 76.40938 260.29895Q75.8 260.79895 74.84688 260.79895Q73.6125 260.79895 72.89375 259.90833Q72.05 258.84583 72.05 256.42395ZM73.12813 256.42395Q73.12813 258.53333 73.62813 259.23645Q74.12813 259.93958 74.84688 259.93958Q75.58125 259.93958 76.06563 259.23645Q76.56563 258.53333 76.56563 256.42395Q76.56563 254.29895 76.06563 253.61145Q75.58125 252.90833 74.83125 252.90833Q74.1125 252.90833 73.675 253.5177Q73.12813 254.29895 73.12813 256.42395Z" fill-rule="nonzero"/><path fill="#000000" d="M58.05 201.61667L59.159374 201.52292Q59.284374 202.33542 59.721874 202.74167Q60.175 203.14792 60.815624 203.14792Q61.565624 203.14792 62.096874 202.5698Q62.628124 201.99167 62.628124 201.05417Q62.628124 200.14792 62.1125 199.6323Q61.6125 199.10104 60.784374 199.10104Q60.284374 199.10104 59.8625 199.33542Q59.45625 199.5698 59.221874 199.92917L58.2375 199.80417L59.065624 195.39792L63.346874 195.39792L63.346874 196.39792L59.909374 196.39792L59.45625 198.71042Q60.221874 198.16354 61.065624 198.16354Q62.190624 198.16354 62.95625 198.9448Q63.7375 199.72604 63.7375 200.96042Q63.7375 202.11667 63.065624 202.97604Q62.2375 204.0073 60.815624 204.0073Q59.64375 204.0073 58.89375 203.35104Q58.159374 202.6948 58.05 201.61667ZM65.05 199.6323Q65.05 198.10104 65.3625 197.17917Q65.675 196.24167 66.28438 195.74167Q66.90938 195.24167 67.84688 195.24167Q68.53438 195.24167 69.05 195.52292Q69.58125 195.80417 69.925 196.33542Q70.26875 196.85104 70.45625 197.60104Q70.64375 198.35104 70.64375 199.6323Q70.64375 201.14792 70.33125 202.0698Q70.03438 202.99167 69.40938 203.5073Q68.8 204.0073 67.84688 204.0073Q66.6125 204.0073 65.89375 203.11667Q65.05 202.05417 65.05 199.6323ZM66.12813 199.6323Q66.12813 201.74167 66.62813 202.4448Q67.12813 203.14792 67.84688 203.14792Q68.58125 203.14792 69.06563 202.4448Q69.56563 201.74167 69.56563 199.6323Q69.56563 197.5073 69.06563 196.8198Q68.58125 196.11667 67.83125 196.11667Q67.1125 196.11667 66.675 196.72604Q66.12813 197.5073 66.12813 199.6323ZM72.05 199.6323Q72.05 198.10104 72.3625 197.17917Q72.675 196.24167 73.28438 195.74167Q73.90938 195.24167 74.84688 195.24167Q75.53438 195.24167 76.05 195.52292Q76.58125 195.80417 76.925 196.33542Q77.26875 196.85104 77.45625 197.60104Q77.64375 198.35104 77.64375 199.6323Q77.64375 201.14792 77.33125 202.0698Q77.03438 202.99167 76.40938 203.5073Q75.8 204.0073 74.84688 204.0073Q73.6125 204.0073 72.89375 203.11667Q72.05 202.05417 72.05 199.6323ZM73.12813 199.6323Q73.12813 201.74167 73.62813 202.4448Q74.12813 203.14792 74.84688 203.14792Q75.58125 203.14792 76.06563 202.4448Q76.56563 201.74167 76.56563 199.6323Q76.56563 197.5073 76.06563 196.8198Q75.58125 196.11667 74.83125 196.11667Q74.1125 196.11667 73.675 196.72604Q73.12813 197.5073 73.12813 199.6323Z" fill-rule="nonzero"/><path fill="#000000" d="M58.1125 139.60625L58.1125 138.59062L63.675 138.59062L63.675 139.41875Q62.8625 140.29375 62.05 141.74687Q61.253124 143.18437 60.815624 144.71562Q60.4875 145.79375 60.409374 147.075L59.315624 147.075Q59.33125 146.05937 59.70625 144.62187Q60.096874 143.18437 60.8 141.85625Q61.51875 140.52812 62.33125 139.60625L58.1125 139.60625ZM65.05 144.825L66.15938 144.73125Q66.28438 145.54375 66.72188 145.95Q67.175 146.35625 67.81563 146.35625Q68.56563 146.35625 69.09688 145.77812Q69.62813 145.2 69.62813 144.2625Q69.62813 143.35625 69.1125 142.84062Q68.6125 142.30937 67.78438 142.30937Q67.28438 142.30937 66.8625 142.54375Q66.45625 142.77812 66.22188 143.1375L65.2375 143.0125L66.06563 138.60625L70.34688 138.60625L70.34688 139.60625L66.90938 139.60625L66.45625 141.91875Q67.22188 141.37187 68.06563 141.37187Q69.19063 141.37187 69.95625 142.15312Q70.7375 142.93437 70.7375 144.16875Q70.7375 145.325 70.06563 146.18437Q69.2375 147.21562 67.81563 147.21562Q66.64375 147.21562 65.89375 146.55937Q65.15938 145.90312 65.05 144.825ZM72.05 142.84062Q72.05 141.30937 72.3625 140.3875Q72.675 139.45 73.28438 138.95Q73.90938 138.45 74.84688 138.45Q75.53438 138.45 76.05 138.73125Q76.58125 139.0125 76.925 139.54375Q77.26875 140.05937 77.45625 140.80937Q77.64375 141.55937 77.64375 142.84062Q77.64375 144.35625 77.33125 145.27812Q77.03438 146.2 76.40938 146.71562Q75.8 147.21562 74.84688 147.21562Q73.6125 147.21562 72.89375 146.325Q72.05 145.2625 72.05 142.84062ZM73.12813 142.84062Q73.12813 144.95 73.62813 145.65312Q74.12813 146.35625 74.84688 146.35625Q75.58125 146.35625 76.06563 145.65312Q76.56563 144.95 76.56563 142.84062Q76.56563 140.71562 76.06563 140.02812Q75.58125 139.325 74.83125 139.325Q74.1125 139.325 73.675 139.93437Q73.12813 140.71562 73.12813 142.84062Z" fill-rule="nonzero"/><path fill="#000000" d="M55.01875 90.28333L53.971874 90.28333L53.971874 83.56458Q53.58125 83.92396 52.95625 84.29896Q52.346874 84.65833 51.8625 84.83021L51.8625 83.81458Q52.7375 83.39271 53.39375 82.81458Q54.065624 82.22083 54.346874 81.65833L55.01875 81.65833L55.01875 90.28333ZM58.05 86.04896Q58.05 84.51771 58.3625 83.59583Q58.675 82.65833 59.284374 82.15833Q59.909374 81.65833 60.846874 81.65833Q61.534374 81.65833 62.05 81.93958Q62.58125 82.22083 62.925 82.75208Q63.26875 83.26771 63.45625 84.01771Q63.64375 84.76771 63.64375 86.04896Q63.64375 87.56458 63.33125 88.48646Q63.034374 89.40833 62.409374 89.92396Q61.8 90.42396 60.846874 90.42396Q59.6125 90.42396 58.89375 89.53333Q58.05 88.47083 58.05 86.04896ZM59.128124 86.04896Q59.128124 88.15833 59.628124 88.86146Q60.128124 89.56458 60.846874 89.56458Q61.58125 89.56458 62.065624 88.86146Q62.565624 88.15833 62.565624 86.04896Q62.565624 83.92396 62.065624 83.23646Q61.58125 82.53333 60.83125 82.53333Q60.1125 82.53333 59.675 83.14271Q59.128124 83.92396 59.128124 86.04896ZM65.05 86.04896Q65.05 84.51771 65.3625 83.59583Q65.675 82.65833 66.28438 82.15833Q66.90938 81.65833 67.84688 81.65833Q68.53438 81.65833 69.05 81.93958Q69.58125 82.22083 69.925 82.75208Q70.26875 83.26771 70.45625 84.01771Q70.64375 84.76771 70.64375 86.04896Q70.64375 87.56458 70.33125 88.48646Q70.03438 89.40833 69.40938 89.92396Q68.8 90.42396 67.84688 90.42396Q66.6125 90.42396 65.89375 89.53333Q65.05 88.47083 65.05 86.04896ZM66.12813 86.04896Q66.12813 88.15833 66.62813 88.86146Q67.12813 89.56458 67.84688 89.56458Q68.58125 89.56458 69.06563 88.86146Q69.56563 88.15833 69.56563 86.04896Q69.56563 83.92396 69.06563 83.23646Q68.58125 82.53333 67.83125 82.53333Q67.1125 82.53333 66.675 83.14271Q66.12813 83.92396 66.12813 86.04896ZM72.05 86.04896Q72.05 84.51771 72.3625 83.59583Q72.675 82.65833 73.28438 82.15833Q73.90938 81.65833 74.84688 81.65833Q75.53438 81.65833 76.05 81.93958Q76.58125 82.22083 76.925 82.75208Q77.26875 83.26771 77.45625 84.01771Q77.64375 84.76771 77.64375 86.04896Q77.64375 87.56458 77.33125 88.48646Q77.03438 89.40833 76.40938 89.92396Q75.8 90.42396 74.84688 90.42396Q73.6125 90.42396 72.89375 89.53333Q72.05 88.47083 72.05 86.04896ZM73.12813 86.04896Q73.12813 88.15833 73.62813 88.86146Q74.12813 89.56458 74.84688 89.56458Q75.58125 89.56458 76.06563 88.86146Q76.56563 88.15833 76.56563 86.04896Q76.56563 83.92396 76.06563 83.23646Q75.58125 82.53333 74.83125 82.53333Q74.1125 82.53333 73.675 83.14271Q73.12813 83.92396 73.12813 86.04896Z" fill-rule="nonzero"/><path fill="#a64d79" d="M280.0 55.916668C280.0 55.364384 280.44772 54.916668 281.0 54.916668L291.0 54.916668C291.55228 54.916668 292.0 55.364384 292.0 55.916668L292.0 65.916664C292.0 66.46895 291.55228 66.916664 291.0 66.916664L281.0 66.916664C280.44772 66.916664 280.0 66.46895 280.0 65.916664Z" fill-rule="nonzero"/><path fill="#f6b26b" d="M308.0 55.916668C308.0 55.364384 308.44772 54.916668 309.0 54.916668L319.0 54.916668C319.55228 54.916668 320.0 55.364384 320.0 55.916668L320.0 65.916664C320.0 66.46895 319.55228 66.916664 319.0 66.916664L309.0 66.916664C308.44772 66.916664 308.0 66.46895 308.0 65.916664Z" fill-rule="nonzero"/><path fill="#757575" d="M20.096874 37.55L20.096874 23.2375L25.4875 23.2375Q26.925 23.2375 27.675 23.3625Q28.721874 23.55 29.440624 24.05Q30.159374 24.534374 30.58125 25.425Q31.01875 26.315624 31.01875 27.378124Q31.01875 29.20625 29.846874 30.471874Q28.690624 31.721874 25.659374 31.721874L21.9875 31.721874L21.9875 37.55L20.096874 37.55ZM21.9875 30.034374L25.690624 30.034374Q27.51875 30.034374 28.284374 29.3625Q29.065624 28.675 29.065624 27.425Q29.065624 26.534374 28.6125 25.89375Q28.159374 25.253124 27.425 25.05Q26.940624 24.925 25.64375 24.925L21.9875 24.925L21.9875 30.034374ZM32.39375 33.76875L34.14375 33.534374Q34.45625 35.034374 35.175 35.690624Q35.909374 36.346874 36.95625 36.346874Q38.190624 36.346874 39.034374 35.4875Q39.89375 34.628124 39.89375 33.3625Q39.89375 32.14375 39.096874 31.3625Q38.315624 30.58125 37.096874 30.58125Q36.596874 30.58125 35.8625 30.76875L36.05 29.221874Q36.221874 29.253124 36.33125 29.253124Q37.45625 29.253124 38.346874 28.675Q39.253124 28.08125 39.253124 26.8625Q39.253124 25.89375 38.596874 25.253124Q37.940624 24.6125 36.909374 24.6125Q35.89375 24.6125 35.20625 25.26875Q34.51875 25.909374 34.33125 27.190624L32.565624 26.878124Q32.89375 25.1125 34.034374 24.14375Q35.175 23.175 36.878124 23.175Q38.05 23.175 39.034374 23.675Q40.01875 24.175 40.534374 25.05Q41.065624 25.925 41.065624 26.89375Q41.065624 27.815624 40.565624 28.58125Q40.065624 29.346874 39.096874 29.8Q40.3625 30.08125 41.065624 31.01875Q41.76875 31.940624 41.76875 33.315624Q41.76875 35.190624 40.39375 36.503124Q39.034374 37.8 36.940624 37.8Q35.05 37.8 33.8 36.675Q32.565624 35.55 32.39375 33.76875ZM49.8625 37.55L49.8625 27.175L51.45625 27.175L51.45625 28.659374Q52.596874 26.940624 54.753124 26.940624Q55.690624 26.940624 56.471874 27.284374Q57.26875 27.6125 57.659374 28.159374Q58.05 28.70625 58.20625 29.45625Q58.3 29.95625 58.3 31.175L58.3 37.55L56.534374 37.55L56.534374 31.2375Q56.534374 30.159374 56.33125 29.628124Q56.128124 29.096874 55.596874 28.784374Q55.08125 28.471874 54.378124 28.471874Q53.253124 28.471874 52.440624 29.190624Q51.628124 29.89375 51.628124 31.878124L51.628124 37.55L49.8625 37.55ZM67.97188 34.20625L69.78438 34.440624Q69.3625 36.01875 68.19063 36.909374Q67.03438 37.784374 65.22188 37.784374Q62.95625 37.784374 61.6125 36.39375Q60.284374 34.9875 60.284374 32.45625Q60.284374 29.83125 61.628124 28.39375Q62.971874 26.940624 65.12813 26.940624Q67.20625 26.940624 68.51875 28.3625Q69.84688 29.76875 69.84688 32.346874Q69.84688 32.503124 69.83125 32.815624L62.096874 32.815624Q62.190624 34.51875 63.065624 35.425Q63.940624 36.33125 65.2375 36.33125Q66.20625 36.33125 66.87813 35.83125Q67.56563 35.315624 67.97188 34.20625ZM62.190624 31.3625L67.9875 31.3625Q67.87813 30.065624 67.33125 29.409374Q66.4875 28.39375 65.14375 28.39375Q63.940624 28.39375 63.1125 29.20625Q62.284374 30.003124 62.190624 31.3625ZM73.78438 37.55L70.6125 27.175L72.425 27.175L74.08125 33.159374L74.69063 35.39375Q74.7375 35.221874 75.22188 33.253124L76.87813 27.175L78.69063 27.175L80.2375 33.190624L80.75313 35.175L81.34688 33.175L83.12813 27.175L84.83125 27.175L81.59688 37.55L79.76875 37.55L78.1125 31.33125L77.72188 29.565624L75.6125 37.55L73.78438 37.55ZM94.75313 37.55L90.8 27.175L92.65938 27.175L94.89375 33.39375Q95.25313 34.39375 95.55 35.471874Q95.78438 34.659374 96.20625 33.503124L98.50313 27.175L100.31563 27.175L96.39375 37.55L94.75313 37.55ZM101.15938 34.45625L102.90938 34.175Q103.05 35.221874 103.72188 35.784374Q104.39375 36.33125 105.59688 36.33125Q106.8 36.33125 107.37813 35.846874Q107.97188 35.346874 107.97188 34.690624Q107.97188 34.096874 107.45625 33.753124Q107.09688 33.51875 105.65938 33.159374Q103.72188 32.659374 102.97188 32.315624Q102.2375 31.95625 101.84688 31.33125Q101.45625 30.690624 101.45625 29.925Q101.45625 29.2375 101.76875 28.64375Q102.09688 28.05 102.64375 27.659374Q103.05 27.3625 103.75313 27.159374Q104.47188 26.940624 105.28438 26.940624Q106.50313 26.940624 107.425 27.3Q108.34688 27.64375 108.78438 28.253124Q109.22188 28.846874 109.39375 29.846874L107.675 30.08125Q107.55 29.284374 106.9875 28.846874Q106.425 28.39375 105.40938 28.39375Q104.19063 28.39375 103.675 28.8Q103.15938 29.190624 103.15938 29.721874Q103.15938 30.065624 103.37813 30.346874Q103.58125 30.628124 104.05 30.815624Q104.31563 30.909374 105.59688 31.253124Q107.47188 31.753124 108.20625 32.08125Q108.94063 32.39375 109.3625 33.003124Q109.78438 33.596874 109.78438 34.503124Q109.78438 35.378124 109.26875 36.159374Q108.75313 36.940624 107.78438 37.3625Q106.81563 37.784374 105.59688 37.784374Q103.58125 37.784374 102.51875 36.940624Q101.45625 36.096874 101.15938 34.45625ZM112.3625 37.55L112.3625 35.55L114.3625 35.55L114.3625 37.55L112.3625 37.55ZM124.09688 37.55L124.09688 23.2375L129.4875 23.2375Q130.925 23.2375 131.675 23.3625Q132.72188 23.55 133.44063 24.05Q134.15938 24.534374 134.58125 25.425Q135.01875 26.315624 135.01875 27.378124Q135.01875 29.20625 133.84688 30.471874Q132.69063 31.721874 129.65938 31.721874L125.9875 31.721874L125.9875 37.55L124.09688 37.55ZM125.9875 30.034374L129.69063 30.034374Q131.51875 30.034374 132.28438 29.3625Q133.06563 28.675 133.06563 27.425Q133.06563 26.534374 132.6125 25.89375Q132.15938 25.253124 131.425 25.05Q130.94063 24.925 129.64375 24.925L125.9875 24.925L125.9875 30.034374ZM136.39375 33.76875L138.14375 33.534374Q138.45625 35.034374 139.175 35.690624Q139.90938 36.346874 140.95625 36.346874Q142.19063 36.346874 143.03438 35.4875Q143.89375 34.628124 143.89375 33.3625Q143.89375 32.14375 143.09688 31.3625Q142.31563 30.58125 141.09688 30.58125Q140.59688 30.58125 139.8625 30.76875L140.05 29.221874Q140.22188 29.253124 140.33125 29.253124Q141.45625 29.253124 142.34688 28.675Q143.25313 28.08125 143.25313 26.8625Q143.25313 25.89375 142.59688 25.253124Q141.94063 24.6125 140.90938 24.6125Q139.89375 24.6125 139.20625 25.26875Q138.51875 25.909374 138.33125 27.190624L136.56563 26.878124Q136.89375 25.1125 138.03438 24.14375Q139.175 23.175 140.87813 23.175Q142.05 23.175 143.03438 23.675Q144.01875 24.175 144.53438 25.05Q145.06563 25.925 145.06563 26.89375Q145.06563 27.815624 144.56563 28.58125Q144.06563 29.346874 143.09688 29.8Q144.3625 30.08125 145.06563 31.01875Q145.76875 31.940624 145.76875 33.315624Q145.76875 35.190624 144.39375 36.503124Q143.03438 37.8 140.94063 37.8Q139.05 37.8 137.8 36.675Q136.56563 35.55 136.39375 33.76875ZM153.22188 32.3625Q153.22188 29.4875 154.81563 28.096874Q156.15938 26.940624 158.08125 26.940624Q160.22188 26.940624 161.56563 28.346874Q162.925 29.753124 162.925 32.221874Q162.925 34.221874 162.33125 35.378124Q161.7375 36.51875 160.58125 37.159374Q159.44063 37.784374 158.08125 37.784374Q155.89375 37.784374 154.55 36.39375Q153.22188 34.9875 153.22188 32.3625ZM155.01875 32.3625Q155.01875 34.3625 155.87813 35.346874Q156.75313 36.33125 158.08125 36.33125Q159.39375 36.33125 160.25313 35.346874Q161.12813 34.346874 161.12813 32.3Q161.12813 30.378124 160.25313 29.39375Q159.37813 28.39375 158.08125 28.39375Q156.75313 28.39375 155.87813 29.39375Q155.01875 30.378124 155.01875 32.3625ZM164.83125 37.55L164.83125 23.2375L166.58125 23.2375L166.58125 37.55L164.83125 37.55ZM175.59688 37.55L175.59688 36.2375Q174.6125 37.784374 172.69063 37.784374Q171.45625 37.784374 170.40938 37.096874Q169.37813 36.409374 168.8 35.190624Q168.2375 33.971874 168.2375 32.378124Q168.2375 30.815624 168.75313 29.55Q169.26875 28.284374 170.3 27.6125Q171.34688 26.940624 172.6125 26.940624Q173.55 26.940624 174.28438 27.346874Q175.01875 27.7375 175.4875 28.3625L175.4875 23.2375L177.22188 23.2375L177.22188 37.55L175.59688 37.55ZM170.03438 32.378124Q170.03438 34.3625 170.87813 35.346874Q171.72188 36.33125 172.8625 36.33125Q174.01875 36.33125 174.81563 35.39375Q175.62813 34.45625 175.62813 32.51875Q175.62813 30.39375 174.8 29.39375Q173.9875 28.39375 172.78438 28.39375Q171.6125 28.39375 170.81563 29.3625Q170.03438 30.315624 170.03438 32.378124Z" fill-rule="nonzero"/></svg>